<?xml version="1.0" encoding="UTF-8" standalone="no"?>
<svg
   xmlns:dc="http://purl.org/dc/elements/1.1/"
   xmlns:cc="http://creativecommons.org/ns#"
   xmlns:rdf="http://www.w3.org/1999/02/22-rdf-syntax-ns#"
   xmlns:svg="http://www.w3.org/2000/svg"
   xmlns="http://www.w3.org/2000/svg"
   viewBox="0 0 576 288"
   height="223"
   width="447"
   xml:space="preserve"
   id="svg2"
   version="1.1"><metadata
     id="metadata8"><rdf:RDF><cc:Work
         rdf:about=""><dc:format>image/svg+xml</dc:format><dc:type
           rdf:resource="http://purl.org/dc/dcmitype/StillImage" /></cc:Work></rdf:RDF></metadata><defs
     id="defs6" /><g
     transform="matrix(1.3333333,0,0,-1.3333333,0,287.99999)"
     id="g10"><g
       transform="scale(0.1)"
       id="g12"><path
         id="path14"
         style="fill:#FFFFFF;fill-opacity:1;fill-rule:nonzero;stroke:none"
         d="M 4320,0 H 0 V 2160 H 4320 V 0" /><path
         id="path16"
         style="fill:#191970;fill-opacity:1;fill-rule:nonzero;stroke:none"
         d="m 3251.46,1006.38 c -6,-21.61 -18.53,-39.849 -37.54,-54.501 -19.05,-14.719 -39.36,-22.027 -60.9,-22.027 h -768.43 c -21.49,0 -37.5,7.308 -48.06,22.027 -10.6,14.652 -12.87,32.891 -6.86,54.501 l 170.87,617.06 c 6.04,21.63 18.42,40.01 37.21,55.08 18.77,15.07 38.9,22.62 60.45,22.62 h 768.37 c 22.28,0 38.69,-7.39 49.32,-22.06 10.53,-14.67 12.67,-33.25 6.44,-55.64 l -20.22,-73.08 H 2633.78 L 2503.69,1080.6 h 768.32 l -20.55,-74.22" /><path
         id="path18"
         style="fill:#191970;fill-opacity:1;fill-rule:nonzero;stroke:none"
         d="m 3492.1,929.852 h -153.38 l 213.31,770.338 h 153.38 L 3492.1,929.852" /><path
         id="path20"
         style="fill:#191970;fill-opacity:1;fill-rule:nonzero;stroke:none"
         d="M 1385,1701.6 H 1231.63 L 1091.87,1196.86 475.453,1700.46 261.52,928.02 H 414.887 L 553.801,1429.68 1170.23,926.039 1385,1701.6 v 0 0" /><path
         id="path22"
         style="fill:#191970;fill-opacity:1;fill-rule:nonzero;stroke:none"
         d="m 2385.94,1679.08 c -10.63,14.67 -27.02,22.06 -49.3,22.06 h -843.32 l -41.77,-150.87 767.17,0.09 -44.62,-161.23 -766.81,-0.33 -127.61,-458.948 h 153.47 l 85.43,308.488 h 689.93 c 21.53,0 41.81,7.34 60.87,22.04 19.05,14.72 31.57,32.86 37.59,54.52 l 85.41,308.54 c 6.23,22.39 4.08,40.97 -6.44,55.64" /><path
         id="path24"
         style="fill:#288d3e;fill-opacity:1;fill-rule:nonzero;stroke:none"
         d="M 3995.8,1700.86 4190,1314.62 3781.78,928.539 Z" /><path
         id="path26"
         style="fill:#f36817;fill-opacity:1;fill-rule:nonzero;stroke:none"
         d="M 3859.66,1700.86 4053.71,1314.62 3645.35,928.539 Z" /><path
         id="path28"
         style="fill:#000000;fill-opacity:1;fill-rule:nonzero;stroke:none"
         d="m 3620.63,837.141 c 7.18,4.64 14.31,6.898 21.8,6.898 7.19,0 14.97,-1.75 22.51,-5.059 3.96,-1.679 7.86,-3.781 11.66,-6.3 8.88,-5.539 16.91,-12.508 23.88,-20.719 l 1.79,-2.27 c 1.42,-1.82 2.88,-3.66 4.36,-5.48 h -99 c -0.44,1.039 -0.69,2.019 -0.91,2.828 -0.09,0.34 -0.18,0.68 -0.23,0.77 -0.61,4.132 -0.45,7.812 0.49,11.261 2.03,7.59 6.62,13.66 13.65,18.071 z m 385.87,-45.289 -10.54,-39.141 h -49.65 l 10.55,39.141 z m -278.02,12.359 c -3.14,4.109 -6.29,8.211 -9.41,12.43 -10.22,11.41 -19.71,19.898 -29.05,25.98 -7.1,4.57 -13.98,7.949 -21.04,10.328 -7.13,2.383 -14.86,3.633 -22.31,3.633 -13.88,0 -26.12,-2.992 -36.4,-8.871 -10.18,-5.961 -16.9,-14.82 -19.98,-26.352 -1.2,-4.41 -1.29,-8.847 -0.26,-13.109 l 0.07,-0.379 c 0.15,-0.992 0.37,-2.223 0.74,-3.66 h -25.58 l -3.31,-12.359 h 25.36 l -29.91,-110.84 h 17.96 l 29.91,110.84 h 119.52 l -7.63,-28.383 h -73.05 c -2.36,0 -5,-0.43 -8.1,-1.34 -3.11,-1.039 -5.28,-3.527 -6.29,-7.219 -0.49,-1.781 -0.21,-5.301 7.77,-15.398 l 1.09,-1.172 c 6.86,-8.399 11.44,-12.16 14.84,-12.16 5.04,0 7.23,2.109 8.32,4.199 l 5.59,20.793 h 46.5 l -18.96,-70.16 h 17.88 l 29.91,110.84 h 64.11 l -9.57,-35.352 -16.36,-0.039 c -1.05,-0.242 -2.2,-0.481 -2.94,-0.512 -3.98,-0.82 -6.24,-2.488 -6.89,-5.058 -1.27,-4.692 1.59,-10.621 8.77,-18.141 7.58,-7.672 13.18,-11.078 18.1,-11.078 3.96,0 7.07,1.93 9,5.609 0.63,1.188 1.09,2.93 1.34,5 l 16.15,59.571 h 42.95 l -29.9,-110.84 h 18.01 l 29.91,110.84 h 53.33 l -10.54,-39.141 h -11.98 c -1.56,0 -3.4,-0.352 -5.33,-0.961 -3.02,-0.66 -4.91,-2.621 -5.83,-6.012 -0.99,-3.539 1.7,-8.629 8.69,-16.449 6.59,-7.629 11.98,-11.34 16.47,-11.34 3.53,0 6.02,1.11 7.48,3.262 0.64,0.73 1.01,1.848 1.04,3.23 l 4.2,15.52 h 49.62 l -15.9,-58.949 h 17.81 l 29.93,110.84 h 23.73 l 3.3,12.359 h -322.88" /><path
         id="path30"
         style="fill:#000000;fill-opacity:1;fill-rule:nonzero;stroke:none"
         d="m 2913.74,791.852 h 33.59 l -11.43,-42.571 h -43.41 l 9.51,35.391 c 1.79,6.508 0.28,11.976 -4.49,16.269 -4.68,4.137 -11.16,6.239 -19.25,6.239 -8.04,0 -15.48,-1.86 -22.16,-5.532 -6.52,-3.847 -10.89,-9.527 -12.96,-16.878 -0.62,-2.168 -0.55,-4.79 0.26,-8.93 l 0.16,-0.59 c 0.25,-0.91 0.55,-2.051 1.23,-3.309 l 0.4,-0.761 h 16.79 l -1.6,2.281 c -0.52,0.699 -0.78,1.18 -0.9,1.539 -0.86,3.16 -0.88,6.141 -0.06,9.121 0.89,3.379 2.68,6.07 5.46,8.168 2.78,2.031 5.95,3.012 9.71,3.012 4.83,0 7.93,-0.813 9.25,-2.469 1.42,-1.633 1.77,-3.863 0.97,-6.652 l -9.95,-36.899 h -16.65 c -1.41,0 -3.22,-0.543 -5.61,-1.691 -2.66,-1.508 -4.13,-3.141 -4.64,-5.11 -0.57,-2.089 -0.08,-6.179 10.7,-17.531 10.63,-11.39 14.74,-12.699 16.9,-12.699 2.63,0 5.85,0.301 7.42,2.879 0.72,1.582 1.43,3.281 1.54,4.73 l 4.36,16.082 h 43.38 l -14.04,-51.98 c -5.51,-1 -10.89,-2.699 -16.02,-5.102 -2.72,-1.359 -6.15,-3.39 -9.94,-5.859 l -1.57,-1.012 11.53,-10.609 0.97,0.832 c 2.8,2.398 4.53,3.789 5.78,4.617 4.6,2.973 9.14,4.481 13.49,4.481 4.68,0 8.17,-1.207 10.41,-3.618 2.34,-2.492 2.97,-5.359 1.94,-9.031 -1.49,-5.609 -5.31,-10.101 -11.36,-13.34 -6.19,-3.351 -13.13,-5.05 -20.6,-5.05 -12.22,0 -23.12,4.019 -32.41,11.949 -3.19,2.562 -6.62,6.48 -10.8,11.601 l -0.9,1.11 -14.44,-11.641 1.06,-1.141 c 5.34,-5.718 10.08,-9.847 14.46,-12.597 12.86,-8.039 26.71,-11.949 42.36,-11.949 12.83,0 23.95,2.707 33.04,8.089 9.41,5.508 15.41,12.829 17.85,21.707 2.08,7.602 0.49,14.161 -4.7,19.493 -3.43,3.429 -7.46,5.66 -12.3,6.8 l 29.16,108.161 h 64.78 l -9.58,-35.352 -16.16,-0.031 -1.39,-0.25 c -0.68,-0.137 -1.13,-0.231 -1.68,-0.27 -2.52,-0.519 -5.99,-1.59 -6.95,-5.058 -1.24,-4.602 1.57,-10.532 8.63,-18.141 7.26,-7.461 13.26,-11.078 18.35,-11.078 3.88,0 7.02,2 8.77,5.539 0.7,1.16 1.18,2.891 1.41,5.07 l 16.12,59.571 h 42.92 l -29.91,-110.84 h 18.07 l 29.92,110.84 h 121.98 l -6.47,-23.84 h -59.43 c -8.59,0 -15.87,-2.043 -22.24,-6.223 -6.45,-4.051 -10.78,-10.051 -12.87,-17.828 -3.64,-13.289 0.26,-27.621 11.58,-42.609 3.99,-5.122 10.07,-11.383 17.66,-18.133 l 0.83,-0.739 14.11,9.489 -1.39,1.242 c -6.71,5.93 -12.1,11.488 -15.59,16.059 -9.38,12.421 -12.65,24.242 -9.76,35.101 1.1,3.949 3.26,6.867 6.58,8.891 3.8,2.16 9.1,3.238 15.72,3.238 h 51.7 l -20.32,-75.488 h 17.85 l 29.92,110.84 h 42.91 l -29.89,-110.84 h 17.87 l 29.92,110.84 h 119.59 l -7.65,-28.332 -73.14,-0.051 c -2.35,0 -5.18,-0.481 -8,-1.34 -3.11,-1.039 -5.28,-3.539 -6.29,-7.25 -0.49,-1.899 -0.09,-5.699 8.82,-16.551 7.22,-8.617 11.53,-12.148 14.89,-12.148 4.04,0 6.78,1.308 8.31,4.199 l 5.6,20.793 h 46.49 l -18.96,-70.16 h 17.82 l 29.93,110.84 h 23.8 l 3.32,12.359 h -556.67 l -3.32,-12.359" /><path
         id="path32"
         style="fill:#000000;fill-opacity:1;fill-rule:nonzero;stroke:none"
         d="m 2489.97,791.852 -6.21,-22.891 h -38.3 c -8.84,0 -17.04,-1.981 -24.4,-5.91 -1.78,-1.02 -3.23,-1.949 -4.76,-3.082 -3.92,-2.66 -6.95,-5.481 -9.23,-8.539 l -35.21,40.422 z m -90.09,-52.93 c -0.02,-0.094 -0.05,-0.184 -0.07,-0.274 l -0.24,-0.898 c -0.31,-1.191 -0.6,-2.441 -0.79,-3.52 -1.27,-0.679 -2.86,-1.332 -4.52,-2 -6.47,-2.652 -12.8,-3.949 -19.38,-3.949 h -0.36 c -7.31,0.16 -12.81,1.84 -16.31,5.008 -3.56,3.27 -4.58,7.602 -3.09,13.191 l 9.09,33.622 z m 114.23,98.578 c 3.96,3.129 9.02,4.66 15.49,4.66 4.51,0 8.65,-0.699 12.28,-2.019 7.32,-2.879 12.81,-8.61 16.77,-17.52 1.84,-4.152 3.4,-10.34 4.63,-18.41 h -55.04 c -0.69,1.48 -1.25,2.848 -1.75,4.027 l -0.29,0.66 c -1.47,5.063 -1.5,10.282 -0.11,15.512 1.5,5.61 4.2,10.012 8.02,13.09 z m 147.05,-51.91 c -0.42,1.57 -1.2,3.449 -2.6,6.262 h 45.79 l -15.34,-56.711 c -4.43,-3.903 -7.8,-6.551 -10.52,-8.289 -9.51,-5.68 -18.9,-8.571 -28.7,-8.821 h -0.86 c -12.01,0 -19.98,3.699 -24.33,11.289 -1.06,2.039 -1.87,5.11 -2.66,10.16 7.05,1.329 12.76,2.86 17.02,4.532 12.8,5.308 20.79,13.648 23.75,24.777 1.38,5.102 0.83,10.973 -1.55,16.801 z m -87.38,42.48 c -5.78,13.192 -15.34,21.41 -28.4,24.418 -3.9,1.024 -8.24,1.492 -13.67,1.492 -10.67,0 -19.86,-2.39 -27.31,-7.101 -7.75,-4.84 -12.78,-11.949 -15.38,-21.707 -1.33,-4.774 -0.98,-10.352 0.99,-16.442 0.25,-1.3 0.73,-2.73 1.48,-4.519 h -334.96 l -3.32,-12.359 h 72.85 l -7.49,-27.762 c -1.07,-4.031 -3.55,-7.371 -7.35,-9.93 -3.91,-2.601 -8.88,-3.898 -14.76,-3.898 -3.64,0 -6.57,0.488 -9.47,1.578 -3.38,1.422 -3.99,2.719 -4.17,3.269 l -7.76,17.621 -16.18,-8.351 0.68,-1.57 c 1.67,-3.93 3.19,-7.508 4.32,-10.25 3.48,-8.11 8.22,-17.161 14.48,-27.68 4.02,-6.809 9.21,-14.559 15.41,-23.008 4.79,-6.582 10.05,-13.242 16.04,-20.359 l 0.83,-0.961 15.63,10.129 -1.12,1.269 c -1.69,1.903 -3.22,3.563 -4.56,5.039 -1.41,1.551 -2.63,2.883 -3.61,4 -2.43,3.114 -4.69,5.934 -6.75,8.492 -2.7,3.352 -5.04,6.258 -6.82,8.668 l -12.14,21.051 c 7.06,-1.32 15.1,-0.199 23.73,2.871 6.46,2.352 11.4,5.301 14.67,8.801 3.36,3.649 5.52,7.367 6.58,11.418 l 8,29.563 h 46.67 L 2261,681.012 h 17.87 l 29.94,110.84 h 40.3 l -11.88,-44.114 c -2.48,-9.136 -0.15,-16.84 6.93,-22.906 6.92,-5.871 16.19,-8.844 27.78,-8.844 4.97,0 10.13,0.782 15.74,2.371 3.37,0.903 7.05,2.11 10.93,3.641 0.94,-5.699 3.36,-10.809 7.36,-15.539 0.96,-1.281 2.09,-2.481 3.18,-3.641 l 0.32,-0.34 c 6.75,-6.32 14.89,-10.64 24.22,-12.89 l -60.39,-41.469 h 26.41 l 45.14,35.34 23.94,-35.34 h 21.39 l -30.89,40.039 c 8.02,0.879 14.89,2.57 20.96,5.121 8.92,3.688 17.29,9.11 25.58,16.59 l 1.49,1.348 -13.4,7.551 -0.77,-0.75 c -11.79,-11.5 -25.47,-17.079 -41.81,-17.079 -12.22,0 -21.88,3.579 -28.68,10.641 -5.9,6.059 -8.32,12.738 -7.45,20.359 0.28,1.668 0.55,3.008 0.88,4.231 0.35,1.316 0.76,2.316 1.13,3.258 1.88,4.121 5.32,7.789 9.98,10.64 5.72,3.86 12.06,5.809 18.84,5.809 h 51.58 l 9.68,35.973 h 53.2 l -29.89,-110.84 h 17.93 l 29.92,110.84 h 59.13 c 2.35,-2.883 3.87,-4.813 4.66,-6.641 2.96,-6 3.79,-10.832 2.63,-15.199 -1.77,-6.602 -5.58,-11.633 -11.31,-14.903 -4.78,-2.699 -10.87,-4.058 -18.09,-4.058 -0.81,0 -2.23,0.148 -3.93,0.64 -0.92,0.149 -1.74,0.34 -2.5,0.52 -0.9,0.199 -1.71,0.379 -2.47,0.488 l -1.25,0.153 -0.31,-1.223 c -3.03,-11.418 -1,-21.879 6.05,-31.109 6.99,-9.282 18.94,-14 35.54,-14 h 0.84 c 9.83,0.16 19.47,2.039 28.67,5.582 2.18,0.82 4.57,1.949 7.62,3.539 l -9.32,-34.629 h 18 l 29.91,110.84 h 23.74 l 3.35,12.359 h -169.88 c -1.22,10.668 -3.17,18.699 -5.76,23.859" /><path
         id="path34"
         style="fill:#000000;fill-opacity:1;fill-rule:nonzero;stroke:none"
         d="m 1829.82,837.5 c 3.94,3.129 8.93,4.66 15.27,4.66 4.57,0 8.58,-0.68 12.25,-2.019 7.39,-2.911 13.1,-8.801 16.97,-17.532 1.71,-3.738 3.12,-9.461 4.53,-18.398 h -55.07 c -0.75,1.5 -1.5,3.051 -1.94,4.68 -1.51,5.269 -1.59,10.488 -0.23,15.5 1.53,5.629 4.3,10.031 8.22,13.109 z m 147.02,-51.852 c -0.54,1.684 -1.38,3.723 -2.56,6.204 h 45.58 l -15.2,-56.723 c -4.43,-3.949 -8.29,-6.699 -10.73,-8.289 -9.29,-5.59 -18.95,-8.559 -28.69,-8.809 h -0.79 c -11.95,0 -20.16,3.828 -24.34,11.18 -1.04,2.398 -1.93,5.93 -2.61,10.269 7.07,1.34 12.99,2.899 17.22,4.551 12.67,5.309 20.6,13.649 23.58,24.758 1.34,4.91 0.83,10.762 -1.46,16.859 z m -87.43,42.442 c -6.04,13.25 -15.66,21.449 -28.54,24.398 -3.66,1.012 -8.1,1.492 -13.58,1.492 -10.68,0 -19.85,-2.39 -27.24,-7.101 -7.78,-4.899 -13.05,-12.207 -15.65,-21.719 -1.24,-4.629 -0.89,-10.219 1.01,-16.469 0.3,-1.351 0.91,-2.812 1.64,-4.48 h -334.98 l -3.34,-12.359 h 33.55 l -11.45,-42.571 h -43.4 l 9.55,35.399 c 1.73,6.511 0.18,11.98 -4.57,16.242 -4.45,4.148 -10.91,6.258 -19.21,6.258 -8.06,0 -15.49,-1.86 -22.11,-5.52 -6.57,-3.828 -10.77,-9.359 -12.85,-16.93 -0.63,-2.441 -0.56,-5.351 0.19,-8.64 0,-1.18 0.47,-2.68 1.29,-4.168 l 0.42,-0.742 h 16.79 l -1.72,2.308 c -0.55,0.742 -0.66,1 -0.74,1.532 -0.86,2.992 -0.88,5.96 -0.06,9.082 0.96,3.429 2.72,6.117 5.36,8.199 2.62,2 5.86,3 9.64,3 4.94,0 8.11,-0.813 9.46,-2.449 1.34,-1.571 1.61,-3.793 0.8,-6.622 l -9.94,-36.949 h -16.47 c -1.67,0 -3.39,-0.601 -5.92,-1.691 -2.43,-1.36 -3.83,-2.981 -4.43,-5.11 -0.33,-1.242 -1.33,-4.98 10.63,-17.531 10.62,-11.39 14.78,-12.699 16.98,-12.699 2.48,0 5.94,0.281 7.37,2.828 0.81,1.613 1.37,3.313 1.6,4.781 l 4.37,16.082 h 43.33 l -14.82,-54.929 h 17.89 l 29.92,110.84 h 42.71 l -29.9,-110.84 h 18 l 29.93,110.84 h 90.14 l -7.52,-27.77 c -1.09,-4.172 -3.47,-7.41 -7.27,-9.922 -4.01,-2.629 -8.85,-3.898 -14.78,-3.898 -3.5,0 -6.57,0.519 -9.35,1.578 -3.1,1.308 -4.05,2.609 -4.34,3.269 l -7.75,17.629 -15.89,-8.328 0.44,-1.191 c 1.28,-3.418 2.76,-7.008 4.39,-10.66 3.51,-8.188 8.26,-16.981 14.33,-27.688 3.6,-6.062 8.39,-13.152 15.52,-23 5.71,-7.68 10.94,-14.332 15.98,-20.34 l 0.81,-0.98 15.85,10.14 -1.52,1.641 c -3.34,3.629 -5.97,6.477 -7.84,8.688 l -2.61,3.218 c -4.62,5.723 -8.27,10.242 -10.93,13.922 l -12.29,21.039 c 6.99,-1.301 15.03,-0.219 23.69,2.871 6.51,2.321 11.48,5.289 14.79,8.801 3.32,3.59 5.46,7.328 6.53,11.418 l 8,29.563 h 126.12 l -6.46,-23.84 h -59.54 c -8.5,0 -16,-2.102 -22.28,-6.231 -6.42,-4.101 -10.74,-10.109 -12.85,-17.84 -3.57,-13.32 0.32,-27.64 11.59,-42.601 4.13,-5.27 10.25,-11.539 17.71,-18.141 l 0.83,-0.719 14.12,9.489 -1.39,1.222 c -6.91,6.168 -12.29,11.707 -15.54,16.079 -9.35,12.39 -12.61,24.199 -9.69,35.109 1.08,4 3.21,6.91 6.46,8.883 3.85,2.148 9.11,3.238 15.65,3.238 h 51.81 l -20.33,-75.488 h 17.87 l 29.93,110.84 h 42.78 l -29.89,-110.84 h 17.87 l 29.92,110.84 h 59.15 c 2.46,-2.852 3.93,-4.774 4.68,-6.68 2.97,-5.41 3.8,-10.383 2.51,-15.16 -1.75,-6.571 -5.51,-11.59 -11.15,-14.903 -4.95,-2.687 -11.04,-4.058 -18.12,-4.058 -0.75,0 -2.04,0.109 -4.02,0.629 -0.83,0.148 -1.59,0.32 -2.3,0.511 -0.89,0.207 -1.7,0.399 -2.48,0.508 l -1.23,0.153 -0.35,-1.211 c -3.08,-11.219 -1.12,-21.692 5.82,-31.11 6.95,-9.293 18.92,-14.011 35.61,-14.011 h 0.82 c 10.08,0.179 19.52,2.011 28.84,5.582 2.13,0.82 4.69,2 7.62,3.519 l -9.32,-34.609 h 17.81 l 29.94,110.84 h 23.78 l 3.33,12.359 h -169.74 c -1.26,10.598 -3.2,18.629 -5.78,23.879" /><path
         id="path36"
         style="fill:#000000;fill-opacity:1;fill-rule:nonzero;stroke:none"
         d="m 130,463.449 36.148,130.102 58.243,-76.5 c 1.554,-2.18 3.121,-4.473 4.652,-6.93 1.547,-2.441 3.109,-5.211 4.711,-8.293 l 24.101,86.762 h 18.809 l -36.121,-130.02 -59.488,77.879 c -1.578,2.102 -3.059,4.332 -4.43,6.672 -1.375,2.328 -2.617,4.789 -3.73,7.348 l -24.172,-87.02 H 130" /><path
         id="path38"
         style="fill:#000000;fill-opacity:1;fill-rule:nonzero;stroke:none"
         d="m 314.188,512.602 h 34.882 l -4.89,28.546 c -0.231,1.821 -0.418,3.93 -0.563,6.282 -0.14,2.359 -0.211,5 -0.195,7.91 -1.445,-2.731 -2.887,-5.281 -4.305,-7.649 -1.426,-2.371 -2.824,-4.55 -4.168,-6.543 z m 42.593,-49.153 -5.234,32.223 H 301.965 L 278.48,463.449 h -21.371 l 96.758,130.102 24.371,-130.102 h -21.457" /><path
         id="path40"
         style="fill:#000000;fill-opacity:1;fill-rule:nonzero;stroke:none"
         d="M 440.359,571.328 410.387,463.449 h -20.336 l 29.965,107.879 h -33.254 l 4.801,17.262 h 86.675 l -4.797,-17.262 h -33.082" /><path
         id="path42"
         style="fill:#000000;fill-opacity:1;fill-rule:nonzero;stroke:none"
         d="m 462.871,463.449 34.766,125.141 h 20.347 L 483.215,463.449 h -20.344" /><path
         id="path44"
         style="fill:#000000;fill-opacity:1;fill-rule:nonzero;stroke:none"
         d="m 629.867,525.762 c 1.758,6.328 2.278,12.347 1.551,18.039 -0.727,5.699 -2.641,10.777 -5.73,15.219 -3,4.39 -6.954,7.769 -11.844,10.128 -4.903,2.364 -10.43,3.551 -16.586,3.551 -6.153,0 -12.336,-1.179 -18.535,-3.508 -6.207,-2.332 -12.098,-5.73 -17.66,-10.171 -5.551,-4.391 -10.258,-9.43 -14.125,-15.129 -3.864,-5.711 -6.68,-11.75 -8.454,-18.129 -1.754,-6.332 -2.277,-12.301 -1.566,-17.953 0.715,-5.637 2.613,-10.68 5.715,-15.129 3.09,-4.45 7.078,-7.828 11.957,-10.168 4.875,-2.332 10.426,-3.512 16.637,-3.512 6.097,0 12.214,1.18 18.367,3.512 6.148,2.34 12.031,5.718 17.664,10.168 5.558,4.449 10.293,9.511 14.168,15.179 3.887,5.672 6.699,11.641 8.441,17.903 z m 21.196,0 c -2.469,-8.891 -6.469,-17.293 -12.004,-25.211 -5.539,-7.922 -12.36,-14.992 -20.465,-21.199 -8.168,-6.223 -16.754,-10.973 -25.766,-14.274 -9.015,-3.308 -17.961,-4.957 -26.851,-4.957 -9.004,0 -17.133,1.66 -24.383,5 -7.246,3.328 -13.156,8.07 -17.715,14.231 -4.656,6.207 -7.547,13.25 -8.664,21.109 -1.121,7.867 -0.434,16.301 2.07,25.301 2.488,8.949 6.485,17.379 11.992,25.297 5.504,7.921 12.321,15.023 20.446,21.293 8.109,6.207 16.66,10.949 25.652,14.187 9,3.25 18.023,4.883 27.086,4.883 9.004,0 17.086,-1.633 24.25,-4.883 7.16,-3.238 13.07,-7.98 17.727,-14.187 4.621,-6.321 7.496,-13.461 8.625,-21.411 1.121,-7.953 0.457,-16.339 -2,-25.179" /><path
         id="path46"
         style="fill:#000000;fill-opacity:1;fill-rule:nonzero;stroke:none"
         d="m 653.594,463.449 36.148,130.102 58.238,-76.5 c 1.563,-2.18 3.118,-4.473 4.657,-6.93 1.547,-2.441 3.109,-5.211 4.707,-8.293 l 24.105,86.762 h 18.809 l -36.121,-130.02 -59.489,77.879 c -1.578,2.102 -3.054,4.332 -4.433,6.672 -1.371,2.328 -2.613,4.789 -3.727,7.348 l -24.179,-87.02 h -18.715" /><path
         id="path48"
         style="fill:#000000;fill-opacity:1;fill-rule:nonzero;stroke:none"
         d="m 837.777,512.602 h 34.879 l -4.886,28.546 c -0.231,1.821 -0.422,3.93 -0.563,6.282 -0.141,2.359 -0.211,5 -0.199,7.91 -1.445,-2.731 -2.883,-5.281 -4.305,-7.649 -1.43,-2.371 -2.82,-4.55 -4.168,-6.543 z m 42.594,-49.153 -5.234,32.223 H 825.551 L 802.07,463.449 h -21.371 l 96.758,130.102 24.367,-130.102 h -21.453" /><path
         id="path50"
         style="fill:#000000;fill-opacity:1;fill-rule:nonzero;stroke:none"
         d="m 917.129,463.449 34.766,125.141 h 20.347 L 942.527,481.66 h 45.481 l -5.059,-18.211 h -65.82" /><path
         id="path52"
         style="fill:#000000;fill-opacity:1;fill-rule:nonzero;stroke:none"
         d="m 1096.35,536.281 h 5.22 c 11.28,0 19.15,1.219 23.59,3.668 4.43,2.449 7.53,6.789 9.25,13 1.85,6.66 1.15,11.371 -2.11,14.102 -3.26,2.738 -10.27,4.097 -21.04,4.097 h -5.22 z m -5.91,-16.672 -15.6,-56.16 h -19.06 l 34.76,125.141 h 30.78 c 9.11,0 15.69,-0.5 19.71,-1.488 4.03,-1.012 7.32,-2.641 9.88,-4.922 3.13,-2.91 5.11,-6.821 5.97,-11.75 0.85,-4.93 0.45,-10.36 -1.2,-16.289 -1.64,-5.93 -4.27,-11.403 -7.89,-16.411 -3.62,-5.019 -7.78,-8.941 -12.51,-11.789 -3.82,-2.281 -8.02,-3.91 -12.59,-4.882 -4.57,-0.969 -11.43,-1.45 -20.54,-1.45 h -4.02 -7.69" /><path
         id="path54"
         style="fill:#000000;fill-opacity:1;fill-rule:nonzero;stroke:none"
         d="m 1168.94,512.602 h 34.87 l -4.88,28.546 c -0.24,1.821 -0.42,3.93 -0.57,6.282 -0.14,2.359 -0.21,5 -0.19,7.91 -1.45,-2.731 -2.89,-5.281 -4.31,-7.649 -1.43,-2.371 -2.82,-4.55 -4.17,-6.543 z m 42.59,-49.153 -5.24,32.223 h -49.58 l -23.48,-32.223 h -21.37 l 96.75,130.102 24.38,-130.102 h -21.46" /><path
         id="path56"
         style="fill:#000000;fill-opacity:1;fill-rule:nonzero;stroke:none"
         d="m 1244.63,463.449 15.91,57.27 -23.29,67.871 h 21.37 l 14.44,-42.488 c 0.33,-1.071 0.72,-2.5 1.17,-4.262 0.44,-1.77 0.87,-3.692 1.27,-5.731 1.35,2 2.71,3.871 4.09,5.641 1.37,1.77 2.75,3.391 4.13,4.871 l 38.58,41.969 h 20.36 l -61.95,-67.871 -15.91,-57.27 h -20.17" /><path
         id="path58"
         style="fill:#000000;fill-opacity:1;fill-rule:nonzero;stroke:none"
         d="m 1430.21,525.25 c 0.04,0.969 0.42,3.66 1.12,8.039 0.56,3.641 1,6.66 1.33,9.063 -1.31,-2.864 -2.83,-5.704 -4.56,-8.551 -1.74,-2.852 -3.72,-5.75 -5.97,-8.723 l -51.27,-66.668 -13.83,68.039 c -0.59,2.789 -1.02,5.5 -1.29,8.11 -0.27,2.64 -0.42,5.23 -0.45,7.793 -0.78,-2.622 -1.76,-5.383 -2.93,-8.25 -1.17,-2.883 -2.56,-5.891 -4.18,-9.024 l -30.54,-61.629 h -18.72 l 65.82,130.449 14.98,-78.988 c 0.22,-1.262 0.52,-3.34 0.88,-6.238 0.36,-2.91 0.77,-6.5 1.24,-10.781 2.19,3.589 5.33,8.148 9.43,13.679 1.1,1.489 1.93,2.621 2.5,3.43 l 57.99,78.898 -5.98,-130.449 h -18.89 l 3.32,61.801" /><path
         id="path60"
         style="fill:#000000;fill-opacity:1;fill-rule:nonzero;stroke:none"
         d="m 1465.52,463.449 34.77,125.141 h 69.84 l -4.8,-17.262 h -49.5 l -8.71,-31.379 h 49.5 l -4.97,-17.859 h -49.49 l -11.24,-40.43 h 49.5 l -5.06,-18.211 h -69.84" /><path
         id="path62"
         style="fill:#000000;fill-opacity:1;fill-rule:nonzero;stroke:none"
         d="m 1562.2,463.449 36.14,130.102 58.25,-76.5 c 1.56,-2.18 3.12,-4.473 4.66,-6.93 1.54,-2.441 3.11,-5.211 4.71,-8.293 l 24.09,86.762 h 18.81 l -36.12,-130.02 -59.49,77.879 c -1.58,2.102 -3.05,4.332 -4.42,6.672 -1.38,2.328 -2.62,4.789 -3.73,7.348 l -24.18,-87.02 h -18.72" /><path
         id="path64"
         style="fill:#000000;fill-opacity:1;fill-rule:nonzero;stroke:none"
         d="m 1776.72,571.328 -29.97,-107.879 h -20.34 l 29.97,107.879 h -33.25 l 4.79,17.262 h 86.68 l -4.8,-17.262 h -33.08" /><path
         id="path66"
         style="fill:#000000;fill-opacity:1;fill-rule:nonzero;stroke:none"
         d="m 1798.67,488.5 18.33,7.52 c -0.01,-5.59 1.62,-9.848 4.91,-12.782 3.29,-2.937 8.12,-4.398 14.51,-4.398 6.04,0 11.3,1.672 15.8,5.039 4.5,3.359 7.53,7.859 9.09,13.5 2.05,7.359 -2.23,13.91 -12.82,19.672 -1.47,0.847 -2.61,1.48 -3.42,1.879 -11.92,6.718 -19.42,12.8 -22.49,18.25 -3.07,5.441 -3.52,12.09 -1.33,19.961 2.83,10.191 8.59,18.468 17.27,24.781 8.68,6.328 18.64,9.5 29.86,9.5 9.23,0 16.46,-1.781 21.68,-5.352 5.22,-3.558 8.11,-8.679 8.65,-15.34 l -18.18,-8.21 c -1.42,3.941 -3.37,6.82 -5.85,8.628 -2.48,1.832 -5.67,2.75 -9.54,2.75 -5.48,0 -10.22,-1.437 -14.23,-4.277 -4.01,-2.851 -6.68,-6.672 -8,-11.461 -2.1,-7.519 3.02,-14.531 15.35,-21.031 0.93,-0.508 1.68,-0.91 2.23,-1.188 10.78,-5.703 17.72,-11.281 20.82,-16.711 3.11,-5.441 3.53,-12.25 1.27,-20.39 -3.3,-11.86 -9.65,-21.27 -19.05,-28.25 -9.4,-6.988 -20.46,-10.469 -33.17,-10.469 -10.65,0 -18.71,2.438 -24.16,7.348 -5.45,4.89 -7.96,11.902 -7.53,21.031" /><path
         id="path68"
         style="fill:#000000;fill-opacity:1;fill-rule:nonzero;stroke:none"
         d="m 2071.05,558.16 c -4.39,4.91 -9.45,8.578 -15.19,11.031 -5.73,2.45 -12.12,3.668 -19.19,3.668 -13.68,0 -26.02,-4.379 -37.04,-13.16 -11.01,-8.769 -18.46,-20.148 -22.34,-34.097 -3.75,-13.512 -2.68,-24.661 3.24,-33.43 5.91,-8.774 15.22,-13.172 27.92,-13.172 7.41,0 14.83,1.32 22.26,3.941 7.42,2.618 14.94,6.579 22.57,11.868 l -6.39,-22.981 c -6.56,-3.937 -13.34,-6.867 -20.31,-8.797 -6.98,-1.949 -14.23,-2.91 -21.75,-2.91 -9.58,0 -17.99,1.57 -25.23,4.688 -7.26,3.14 -13.11,7.761 -17.57,13.851 -4.44,5.988 -7.16,13.039 -8.18,21.16 -1.03,8.121 -0.26,16.77 2.29,25.942 2.55,9.179 6.57,17.789 12.1,25.859 5.51,8.07 12.23,15.149 20.14,21.238 7.91,6.161 16.33,10.813 25.25,13.993 8.91,3.148 18.04,4.73 27.39,4.73 7.35,0 14.06,-1.062 20.14,-3.203 6.07,-2.141 11.63,-5.367 16.71,-9.699 l -6.82,-20.52" /><path
         id="path70"
         style="fill:#000000;fill-opacity:1;fill-rule:nonzero;stroke:none"
         d="m 2194.38,525.762 c 1.75,6.328 2.28,12.347 1.55,18.039 -0.72,5.699 -2.64,10.777 -5.72,15.219 -3.01,4.39 -6.96,7.769 -11.85,10.128 -4.9,2.364 -10.44,3.551 -16.59,3.551 -6.15,0 -12.33,-1.179 -18.54,-3.508 -6.2,-2.332 -12.09,-5.73 -17.65,-10.171 -5.56,-4.391 -10.26,-9.43 -14.12,-15.129 -3.87,-5.711 -6.69,-11.75 -8.46,-18.129 -1.76,-6.332 -2.28,-12.301 -1.57,-17.953 0.71,-5.637 2.61,-10.68 5.71,-15.129 3.1,-4.45 7.08,-7.828 11.96,-10.168 4.87,-2.332 10.43,-3.512 16.64,-3.512 6.1,0 12.21,1.18 18.37,3.512 6.14,2.34 12.03,5.718 17.66,10.168 5.56,4.449 10.29,9.511 14.18,15.179 3.87,5.672 6.69,11.641 8.43,17.903 z m 21.2,0 c -2.47,-8.891 -6.47,-17.293 -12.01,-25.211 -5.53,-7.922 -12.36,-14.992 -20.46,-21.199 -8.18,-6.223 -16.76,-10.973 -25.77,-14.274 -9.01,-3.308 -17.96,-4.957 -26.85,-4.957 -9.01,0 -17.13,1.66 -24.39,5 -7.24,3.328 -13.15,8.07 -17.71,14.231 -4.65,6.207 -7.54,13.25 -8.66,21.109 -1.12,7.867 -0.44,16.301 2.07,25.301 2.49,8.949 6.48,17.379 11.99,25.297 5.51,7.921 12.32,15.023 20.44,21.293 8.11,6.207 16.66,10.949 25.66,14.187 9,3.25 18.02,4.883 27.08,4.883 9.01,0 17.09,-1.633 24.25,-4.883 7.17,-3.238 13.08,-7.98 17.74,-14.187 4.61,-6.321 7.49,-13.461 8.61,-21.411 1.13,-7.953 0.46,-16.339 -1.99,-25.179" /><path
         id="path72"
         style="fill:#000000;fill-opacity:1;fill-rule:nonzero;stroke:none"
         d="m 2261.88,535.25 h 3.69 c 10.77,0 18.27,1.25 22.51,3.762 4.21,2.508 7.22,6.957 9,13.328 1.91,6.91 1.37,11.769 -1.64,14.582 -3.01,2.816 -9.64,4.226 -19.89,4.226 h -3.68 z m -5.66,-15.82 -15.56,-55.981 h -19.07 l 34.78,125.141 h 28.38 c 8.32,0 14.63,-0.539 18.91,-1.621 4.29,-1.078 7.71,-2.879 10.27,-5.387 3.02,-3.023 4.93,-6.922 5.71,-11.703 0.78,-4.789 0.37,-10.047 -1.2,-15.738 -2.8,-10.032 -7.4,-17.879 -13.82,-23.539 -6.42,-5.68 -14.52,-9.09 -24.3,-10.223 l 27.28,-56.93 h -23 l -26.07,55.981 h -2.31" /><path
         id="path74"
         style="fill:#000000;fill-opacity:1;fill-rule:nonzero;stroke:none"
         d="m 2363.73,536.281 h 5.21 c 11.28,0 19.16,1.219 23.59,3.668 4.44,2.449 7.53,6.789 9.25,13 1.85,6.66 1.15,11.371 -2.1,14.102 -3.26,2.738 -10.28,4.097 -21.05,4.097 h -5.21 z m -5.92,-16.672 -15.59,-56.16 h -19.08 l 34.78,125.141 h 30.77 c 9.12,0 15.69,-0.5 19.72,-1.488 4.03,-1.012 7.31,-2.641 9.87,-4.922 3.13,-2.91 5.11,-6.821 5.97,-11.75 0.85,-4.93 0.46,-10.36 -1.19,-16.289 -1.65,-5.93 -4.28,-11.403 -7.89,-16.411 -3.63,-5.019 -7.79,-8.941 -12.51,-11.789 -3.83,-2.281 -8.03,-3.91 -12.6,-4.882 -4.57,-0.969 -11.42,-1.45 -20.54,-1.45 h -4.01 -7.7" /><path
         id="path76"
         style="fill:#000000;fill-opacity:1;fill-rule:nonzero;stroke:none"
         d="m 2540.74,525.762 c 1.76,6.328 2.28,12.347 1.55,18.039 -0.72,5.699 -2.63,10.777 -5.73,15.219 -3,4.39 -6.95,7.769 -11.84,10.128 -4.9,2.364 -10.43,3.551 -16.59,3.551 -6.15,0 -12.33,-1.179 -18.54,-3.508 -6.2,-2.332 -12.09,-5.73 -17.65,-10.171 -5.55,-4.391 -10.26,-9.43 -14.12,-15.129 -3.86,-5.711 -6.69,-11.75 -8.46,-18.129 -1.75,-6.332 -2.28,-12.301 -1.57,-17.953 0.72,-5.637 2.62,-10.68 5.72,-15.129 3.09,-4.45 7.08,-7.828 11.95,-10.168 4.88,-2.332 10.43,-3.512 16.64,-3.512 6.1,0 12.23,1.18 18.37,3.512 6.15,2.34 12.04,5.718 17.66,10.168 5.56,4.449 10.29,9.511 14.17,15.179 3.89,5.672 6.7,11.641 8.44,17.903 z m 21.2,0 c -2.47,-8.891 -6.47,-17.293 -12.01,-25.211 -5.53,-7.922 -12.35,-14.992 -20.46,-21.199 -8.17,-6.223 -16.76,-10.973 -25.76,-14.274 -9.02,-3.308 -17.96,-4.957 -26.85,-4.957 -9.01,0 -17.13,1.66 -24.39,5 -7.25,3.328 -13.15,8.07 -17.71,14.231 -4.65,6.207 -7.55,13.25 -8.67,21.109 -1.12,7.867 -0.43,16.301 2.07,25.301 2.48,8.949 6.49,17.379 12,25.297 5.49,7.921 12.31,15.023 20.44,21.293 8.11,6.207 16.66,10.949 25.65,14.187 8.99,3.25 18.03,4.883 27.09,4.883 9,0 17.08,-1.633 24.25,-4.883 7.16,-3.238 13.06,-7.98 17.72,-14.187 4.62,-6.321 7.5,-13.461 8.63,-21.411 1.12,-7.953 0.45,-16.339 -2,-25.179" /><path
         id="path78"
         style="fill:#000000;fill-opacity:1;fill-rule:nonzero;stroke:none"
         d="m 2601.26,535.25 h 3.68 c 10.77,0 18.26,1.25 22.5,3.762 4.22,2.508 7.23,6.957 9.01,13.328 1.91,6.91 1.36,11.769 -1.65,14.582 -3,2.816 -9.63,4.226 -19.89,4.226 h -3.67 z m -5.67,-15.82 -15.56,-55.981 h -19.06 l 34.76,125.141 h 28.38 c 8.32,0 14.63,-0.539 18.92,-1.621 4.28,-1.078 7.7,-2.879 10.26,-5.387 3.04,-3.023 4.94,-6.922 5.72,-11.703 0.78,-4.789 0.37,-10.047 -1.21,-15.738 -2.79,-10.032 -7.39,-17.879 -13.82,-23.539 -6.41,-5.68 -14.51,-9.09 -24.28,-10.223 l 27.26,-56.93 h -23 l -26.07,55.981 h -2.3" /><path
         id="path80"
         style="fill:#000000;fill-opacity:1;fill-rule:nonzero;stroke:none"
         d="m 2706.08,512.602 h 34.89 l -4.9,28.546 c -0.23,1.821 -0.43,3.93 -0.56,6.282 -0.14,2.359 -0.21,5 -0.2,7.91 -1.44,-2.731 -2.88,-5.281 -4.3,-7.649 -1.43,-2.371 -2.83,-4.55 -4.17,-6.543 z m 42.59,-49.153 -5.23,32.223 h -49.58 l -23.49,-32.223 H 2649 l 96.76,130.102 24.38,-130.102 h -21.47" /><path
         id="path82"
         style="fill:#000000;fill-opacity:1;fill-rule:nonzero;stroke:none"
         d="m 2832.26,571.328 -29.97,-107.879 h -20.36 l 29.98,107.879 h -33.25 l 4.8,17.262 h 86.67 l -4.8,-17.262 h -33.07" /><path
         id="path84"
         style="fill:#000000;fill-opacity:1;fill-rule:nonzero;stroke:none"
         d="m 2854.77,463.449 34.77,125.141 h 20.34 l -34.77,-125.141 h -20.34" /><path
         id="path86"
         style="fill:#000000;fill-opacity:1;fill-rule:nonzero;stroke:none"
         d="m 3021.76,525.762 c 1.77,6.328 2.28,12.347 1.55,18.039 -0.72,5.699 -2.64,10.777 -5.72,15.219 -3.01,4.39 -6.96,7.769 -11.85,10.128 -4.9,2.364 -10.43,3.551 -16.59,3.551 -6.15,0 -12.32,-1.179 -18.53,-3.508 -6.21,-2.332 -12.09,-5.73 -17.66,-10.171 -5.55,-4.391 -10.25,-9.43 -14.12,-15.129 -3.87,-5.711 -6.68,-11.75 -8.46,-18.129 -1.76,-6.332 -2.27,-12.301 -1.56,-17.953 0.71,-5.637 2.62,-10.68 5.71,-15.129 3.09,-4.45 7.08,-7.828 11.95,-10.168 4.88,-2.332 10.43,-3.512 16.65,-3.512 6.09,0 12.21,1.18 18.36,3.512 6.15,2.34 12.04,5.718 17.66,10.168 5.57,4.449 10.29,9.511 14.18,15.179 3.88,5.672 6.69,11.641 8.43,17.903 z m 21.2,0 c -2.46,-8.891 -6.47,-17.293 -12,-25.211 -5.54,-7.922 -12.36,-14.992 -20.47,-21.199 -8.17,-6.223 -16.75,-10.973 -25.76,-14.274 -9.02,-3.308 -17.96,-4.957 -26.86,-4.957 -9,0 -17.13,1.66 -24.38,5 -7.25,3.328 -13.16,8.07 -17.72,14.231 -4.65,6.207 -7.54,13.25 -8.66,21.109 -1.11,7.867 -0.43,16.301 2.08,25.301 2.48,8.949 6.47,17.379 11.98,25.297 5.51,7.921 12.33,15.023 20.45,21.293 8.11,6.207 16.66,10.949 25.66,14.187 8.99,3.25 18.01,4.883 27.08,4.883 9,0 17.09,-1.633 24.24,-4.883 7.17,-3.238 13.08,-7.98 17.74,-14.187 4.62,-6.321 7.49,-13.461 8.62,-21.411 1.12,-7.953 0.45,-16.339 -2,-25.179" /><path
         id="path88"
         style="fill:#000000;fill-opacity:1;fill-rule:nonzero;stroke:none"
         d="m 3041.98,463.449 36.15,130.102 58.25,-76.5 c 1.56,-2.18 3.11,-4.473 4.65,-6.93 1.55,-2.441 3.11,-5.211 4.71,-8.293 l 24.1,86.762 h 18.81 l -36.12,-130.02 -59.48,77.879 c -1.59,2.102 -3.07,4.332 -4.44,6.672 -1.37,2.328 -2.61,4.789 -3.73,7.348 l -24.18,-87.02 h -18.72" /><path
         id="path90"
         style="fill:#000000;fill-opacity:1;fill-rule:nonzero;stroke:none"
         d="m 3345.85,525.762 c 1.76,6.328 2.28,12.347 1.55,18.039 -0.73,5.699 -2.63,10.777 -5.73,15.219 -3.01,4.39 -6.95,7.769 -11.85,10.128 -4.9,2.364 -10.43,3.551 -16.58,3.551 -6.16,0 -12.33,-1.179 -18.54,-3.508 -6.2,-2.332 -12.09,-5.73 -17.66,-10.171 -5.55,-4.391 -10.25,-9.43 -14.12,-15.129 -3.86,-5.711 -6.68,-11.75 -8.46,-18.129 -1.75,-6.332 -2.27,-12.301 -1.56,-17.953 0.71,-5.637 2.62,-10.68 5.71,-15.129 3.1,-4.45 7.08,-7.828 11.96,-10.168 4.88,-2.332 10.43,-3.512 16.64,-3.512 6.1,0 12.21,1.18 18.37,3.512 6.15,2.34 12.03,5.718 17.65,10.168 5.57,4.449 10.3,9.511 14.18,15.179 3.89,5.672 6.7,11.641 8.44,17.903 z m 21.19,0 c -2.46,-8.891 -6.46,-17.293 -12,-25.211 -5.53,-7.922 -12.35,-14.992 -20.47,-21.199 -8.16,-6.223 -16.75,-10.973 -25.76,-14.274 -9.02,-3.308 -17.96,-4.957 -26.85,-4.957 -9.01,0 -17.13,1.66 -24.38,5 -7.26,3.328 -13.16,8.07 -17.72,14.231 -4.65,6.207 -7.55,13.25 -8.67,21.109 -1.12,7.867 -0.43,16.301 2.08,25.301 2.48,8.949 6.48,17.379 11.98,25.297 5.51,7.921 12.33,15.023 20.45,21.293 8.12,6.207 16.66,10.949 25.66,14.187 8.99,3.25 18.02,4.883 27.08,4.883 9,0 17.09,-1.633 24.25,-4.883 7.16,-3.238 13.07,-7.98 17.73,-14.187 4.62,-6.321 7.5,-13.461 8.62,-21.411 1.13,-7.953 0.45,-16.339 -2,-25.179" /><path
         id="path92"
         style="fill:#000000;fill-opacity:1;fill-rule:nonzero;stroke:none"
         d="m 3366.06,463.449 34.77,125.141 h 69.84 l -4.79,-17.262 h -49.5 l -8.67,-31.199 h 49.5 l -4.97,-17.859 h -49.49 l -16.34,-58.821 h -20.35" /><path
         id="path94"
         style="fill:#000000;fill-opacity:1;fill-rule:nonzero;stroke:none"
         d="m 3511.13,463.449 34.77,125.141 h 20.34 l -34.77,-125.141 h -20.34" /><path
         id="path96"
         style="fill:#000000;fill-opacity:1;fill-rule:nonzero;stroke:none"
         d="m 3550.2,463.449 36.15,130.102 58.24,-76.5 c 1.56,-2.18 3.12,-4.473 4.65,-6.93 1.55,-2.441 3.11,-5.211 4.72,-8.293 l 24.1,86.762 h 18.81 l -36.13,-130.02 -59.49,77.879 c -1.57,2.102 -3.05,4.332 -4.42,6.672 -1.37,2.328 -2.62,4.789 -3.73,7.348 l -24.18,-87.02 h -18.72" /><path
         id="path98"
         style="fill:#000000;fill-opacity:1;fill-rule:nonzero;stroke:none"
         d="m 3709.27,481.828 h 17.09 c 9.4,0 16.63,0.621 21.69,1.883 5.05,1.25 9.71,3.359 14.02,6.328 5.85,4.043 10.8,9.07 14.83,15.082 4.04,6 7.16,13 9.38,20.981 2.22,7.98 2.98,14.98 2.28,20.988 -0.69,6.019 -2.85,11.039 -6.45,15.09 -2.71,2.968 -6.36,5.082 -10.93,6.332 -4.59,1.25 -12.12,1.879 -22.61,1.879 h -7.35 -7.35 z m -25.45,-18.379 34.76,125.141 h 27.45 c 17.83,0 30.13,-0.891 36.91,-2.692 6.76,-1.796 12.29,-4.796 16.6,-9.027 5.69,-5.512 9.21,-12.609 10.54,-21.269 1.33,-8.672 0.44,-18.551 -2.65,-29.661 -3.08,-11.121 -7.69,-20.972 -13.81,-29.543 -6.11,-8.578 -13.56,-15.66 -22.35,-21.238 -6.64,-4.211 -13.7,-7.219 -21.19,-9.019 -7.47,-1.789 -18.6,-2.692 -33.35,-2.692 h -5.47 -27.44" /><path
         id="path100"
         style="fill:#000000;fill-opacity:1;fill-rule:nonzero;stroke:none"
         d="m 3803.25,463.449 34.77,125.141 h 20.34 l -34.77,-125.141 h -20.34" /><path
         id="path102"
         style="fill:#000000;fill-opacity:1;fill-rule:nonzero;stroke:none"
         d="m 3892.89,512.602 h 34.88 l -4.88,28.546 c -0.23,1.821 -0.43,3.93 -0.57,6.282 -0.14,2.359 -0.21,5 -0.19,7.91 -1.45,-2.731 -2.89,-5.281 -4.31,-7.649 -1.42,-2.371 -2.82,-4.55 -4.17,-6.543 z m 42.6,-49.153 -5.24,32.223 h -49.59 l -23.47,-32.223 h -21.38 l 96.76,130.102 24.37,-130.102 h -21.45" /></g></g></svg>